<?xml version="1.0" encoding="utf-8"?>
<!-- Generator: Adobe Illustrator 23.0.4, SVG Export Plug-In . SVG Version: 6.00 Build 0)  -->
<svg version="1.1" id="Layer_1" xmlns="http://www.w3.org/2000/svg" xmlns:xlink="http://www.w3.org/1999/xlink" x="0px" y="0px"
	 viewBox="0 0 128 128" style="enable-background:new 0 0 128 128;" xml:space="preserve">
<style type="text/css">
	.st0{fill:#00D1B2;}
	.st1{clip-path:url(#SVGID_2_);fill:#479386;}
	.st2{clip-path:url(#SVGID_4_);fill:#479386;}
	.st3{clip-path:url(#SVGID_6_);fill:#479386;}
	.st4{clip-path:url(#SVGID_8_);fill:#479386;}
	.st5{clip-path:url(#SVGID_10_);fill:#479386;}
	.st6{clip-path:url(#SVGID_12_);fill:#479386;}
	.st7{clip-path:url(#SVGID_14_);fill:#479386;}
	.st8{clip-path:url(#SVGID_16_);fill:#479386;}
	.st9{clip-path:url(#SVGID_18_);fill:#479386;}
	.st10{clip-path:url(#SVGID_20_);fill:#479386;}
	.st11{clip-path:url(#SVGID_22_);fill:#479386;}
	.st12{clip-path:url(#SVGID_24_);fill:#479386;}
	.st13{clip-path:url(#SVGID_26_);fill:#479386;}
	.st14{clip-path:url(#SVGID_28_);fill:#479386;}
	.st15{clip-path:url(#SVGID_30_);fill:#479386;}
	.st16{clip-path:url(#SVGID_32_);fill:#479386;}
	.st17{clip-path:url(#SVGID_34_);fill:#479386;}
	.st18{clip-path:url(#SVGID_36_);fill:#479386;}
	.st19{clip-path:url(#SVGID_38_);fill:#479386;}
	.st20{clip-path:url(#SVGID_40_);fill:#479386;}
	.st21{clip-path:url(#SVGID_42_);fill:#479386;}
	.st22{clip-path:url(#SVGID_44_);fill:#479386;}
	.st23{clip-path:url(#SVGID_46_);fill:#479386;}
	.st24{clip-path:url(#SVGID_48_);fill:#479386;}
	.st25{clip-path:url(#SVGID_50_);fill:#479386;}
	.st26{clip-path:url(#SVGID_52_);fill:#479386;}
	.st27{fill:#FFFFFF;}
</style>
<polygon class="st0" points="20.4,64.1 20.4,9.5 67.7,36.9 115,64.1 67.7,91.5 20.4,118.7 "/>
<g>
	<g>
		<defs>
			<path id="SVGID_1_" d="M116.2,62L69,34.6L21.7,7.4C21.3,7.1,20.8,7,20.4,7s-0.9,0.1-1.3,0.4c-0.8,0.5-1.3,1.3-1.3,2.1v54.6v54.6
				c0,0.9,0.5,1.8,1.3,2.1c0.4,0.3,0.9,0.4,1.3,0.4s0.9-0.1,1.3-0.4L69,93.5l47.3-27.4c0.8-0.5,1.3-1.3,1.3-2.1S117,62.3,116.2,62z"
				/>
		</defs>
		<clipPath id="SVGID_2_">
			<use xlink:href="#SVGID_1_"  style="overflow:visible;"/>
		</clipPath>
		<rect x="4.9" y="8.3" class="st1" width="124.3" height="1"/>
	</g>
	<g>
		<defs>
			<path id="SVGID_3_" d="M116.2,62L69,34.6L21.7,7.4C21.3,7.1,20.8,7,20.4,7s-0.9,0.1-1.3,0.4c-0.8,0.5-1.3,1.3-1.3,2.1v54.6v54.6
				c0,0.9,0.5,1.8,1.3,2.1c0.4,0.3,0.9,0.4,1.3,0.4s0.9-0.1,1.3-0.4L69,93.5l47.3-27.4c0.8-0.5,1.3-1.3,1.3-2.1S117,62.3,116.2,62z"
				/>
		</defs>
		<clipPath id="SVGID_4_">
			<use xlink:href="#SVGID_3_"  style="overflow:visible;"/>
		</clipPath>
		<rect x="4.9" y="12.8" class="st2" width="124.3" height="1"/>
	</g>
	<g>
		<defs>
			<path id="SVGID_5_" d="M116.2,62L69,34.6L21.7,7.4C21.3,7.1,20.8,7,20.4,7s-0.9,0.1-1.3,0.4c-0.8,0.5-1.3,1.3-1.3,2.1v54.6v54.6
				c0,0.9,0.5,1.8,1.3,2.1c0.4,0.3,0.9,0.4,1.3,0.4s0.9-0.1,1.3-0.4L69,93.5l47.3-27.4c0.8-0.5,1.3-1.3,1.3-2.1S117,62.3,116.2,62z"
				/>
		</defs>
		<clipPath id="SVGID_6_">
			<use xlink:href="#SVGID_5_"  style="overflow:visible;"/>
		</clipPath>
		<rect x="4.9" y="17.2" class="st3" width="124.3" height="1"/>
	</g>
	<g>
		<defs>
			<path id="SVGID_7_" d="M116.2,62L69,34.6L21.7,7.4C21.3,7.1,20.8,7,20.4,7s-0.9,0.1-1.3,0.4c-0.8,0.5-1.3,1.3-1.3,2.1v54.6v54.6
				c0,0.9,0.5,1.8,1.3,2.1c0.4,0.3,0.9,0.4,1.3,0.4s0.9-0.1,1.3-0.4L69,93.5l47.3-27.4c0.8-0.5,1.3-1.3,1.3-2.1S117,62.3,116.2,62z"
				/>
		</defs>
		<clipPath id="SVGID_8_">
			<use xlink:href="#SVGID_7_"  style="overflow:visible;"/>
		</clipPath>
		<rect x="4.9" y="21.6" class="st4" width="124.3" height="1"/>
	</g>
	<g>
		<defs>
			<path id="SVGID_9_" d="M116.2,62L69,34.6L21.7,7.4C21.3,7.1,20.8,7,20.4,7s-0.9,0.1-1.3,0.4c-0.8,0.5-1.3,1.3-1.3,2.1v54.6v54.6
				c0,0.9,0.5,1.8,1.3,2.1c0.4,0.3,0.9,0.4,1.3,0.4s0.9-0.1,1.3-0.4L69,93.5l47.3-27.4c0.8-0.5,1.3-1.3,1.3-2.1S117,62.3,116.2,62z"
				/>
		</defs>
		<clipPath id="SVGID_10_">
			<use xlink:href="#SVGID_9_"  style="overflow:visible;"/>
		</clipPath>
		<rect x="4.9" y="26" class="st5" width="124.3" height="1"/>
	</g>
	<g>
		<defs>
			<path id="SVGID_11_" d="M116.2,62L69,34.6L21.7,7.4C21.3,7.1,20.8,7,20.4,7s-0.9,0.1-1.3,0.4c-0.8,0.5-1.3,1.3-1.3,2.1v54.6v54.6
				c0,0.9,0.5,1.8,1.3,2.1c0.4,0.3,0.9,0.4,1.3,0.4s0.9-0.1,1.3-0.4L69,93.5l47.3-27.4c0.8-0.5,1.3-1.3,1.3-2.1S117,62.3,116.2,62z"
				/>
		</defs>
		<clipPath id="SVGID_12_">
			<use xlink:href="#SVGID_11_"  style="overflow:visible;"/>
		</clipPath>
		<rect x="4.9" y="30.6" class="st6" width="124.3" height="1"/>
	</g>
	<g>
		<defs>
			<path id="SVGID_13_" d="M116.2,62L69,34.6L21.7,7.4C21.3,7.1,20.8,7,20.4,7s-0.9,0.1-1.3,0.4c-0.8,0.5-1.3,1.3-1.3,2.1v54.6v54.6
				c0,0.9,0.5,1.8,1.3,2.1c0.4,0.3,0.9,0.4,1.3,0.4s0.9-0.1,1.3-0.4L69,93.5l47.3-27.4c0.8-0.5,1.3-1.3,1.3-2.1S117,62.3,116.2,62z"
				/>
		</defs>
		<clipPath id="SVGID_14_">
			<use xlink:href="#SVGID_13_"  style="overflow:visible;"/>
		</clipPath>
		<rect x="4.9" y="35" class="st7" width="124.3" height="1"/>
	</g>
	<g>
		<defs>
			<path id="SVGID_15_" d="M116.2,62L69,34.6L21.7,7.4C21.3,7.1,20.8,7,20.4,7s-0.9,0.1-1.3,0.4c-0.8,0.5-1.3,1.3-1.3,2.1v54.6v54.6
				c0,0.9,0.5,1.8,1.3,2.1c0.4,0.3,0.9,0.4,1.3,0.4s0.9-0.1,1.3-0.4L69,93.5l47.3-27.4c0.8-0.5,1.3-1.3,1.3-2.1S117,62.3,116.2,62z"
				/>
		</defs>
		<clipPath id="SVGID_16_">
			<use xlink:href="#SVGID_15_"  style="overflow:visible;"/>
		</clipPath>
		<rect x="4.9" y="39.4" class="st8" width="124.3" height="1"/>
	</g>
	<g>
		<defs>
			<path id="SVGID_17_" d="M116.2,62L69,34.6L21.7,7.4C21.3,7.1,20.8,7,20.4,7s-0.9,0.1-1.3,0.4c-0.8,0.5-1.3,1.3-1.3,2.1v54.6v54.6
				c0,0.9,0.5,1.8,1.3,2.1c0.4,0.3,0.9,0.4,1.3,0.4s0.9-0.1,1.3-0.4L69,93.5l47.3-27.4c0.8-0.5,1.3-1.3,1.3-2.1S117,62.3,116.2,62z"
				/>
		</defs>
		<clipPath id="SVGID_18_">
			<use xlink:href="#SVGID_17_"  style="overflow:visible;"/>
		</clipPath>
		<rect x="4.9" y="43.8" class="st9" width="124.3" height="1"/>
	</g>
	<g>
		<defs>
			<path id="SVGID_19_" d="M116.2,62L69,34.6L21.7,7.4C21.3,7.1,20.8,7,20.4,7s-0.9,0.1-1.3,0.4c-0.8,0.5-1.3,1.3-1.3,2.1v54.6v54.6
				c0,0.9,0.5,1.8,1.3,2.1c0.4,0.3,0.9,0.4,1.3,0.4s0.9-0.1,1.3-0.4L69,93.5l47.3-27.4c0.8-0.5,1.3-1.3,1.3-2.1S117,62.3,116.2,62z"
				/>
		</defs>
		<clipPath id="SVGID_20_">
			<use xlink:href="#SVGID_19_"  style="overflow:visible;"/>
		</clipPath>
		<rect x="4.9" y="48.3" class="st10" width="124.3" height="1"/>
	</g>
	<g>
		<defs>
			<path id="SVGID_21_" d="M116.2,62L69,34.6L21.7,7.4C21.3,7.1,20.8,7,20.4,7s-0.9,0.1-1.3,0.4c-0.8,0.5-1.3,1.3-1.3,2.1v54.6v54.6
				c0,0.9,0.5,1.8,1.3,2.1c0.4,0.3,0.9,0.4,1.3,0.4s0.9-0.1,1.3-0.4L69,93.5l47.3-27.4c0.8-0.5,1.3-1.3,1.3-2.1S117,62.3,116.2,62z"
				/>
		</defs>
		<clipPath id="SVGID_22_">
			<use xlink:href="#SVGID_21_"  style="overflow:visible;"/>
		</clipPath>
		<rect x="4.9" y="52.8" class="st11" width="124.3" height="1"/>
	</g>
	<g>
		<defs>
			<path id="SVGID_23_" d="M116.2,62L69,34.6L21.7,7.4C21.3,7.1,20.8,7,20.4,7s-0.9,0.1-1.3,0.4c-0.8,0.5-1.3,1.3-1.3,2.1v54.6v54.6
				c0,0.9,0.5,1.8,1.3,2.1c0.4,0.3,0.9,0.4,1.3,0.4s0.9-0.1,1.3-0.4L69,93.5l47.3-27.4c0.8-0.5,1.3-1.3,1.3-2.1S117,62.3,116.2,62z"
				/>
		</defs>
		<clipPath id="SVGID_24_">
			<use xlink:href="#SVGID_23_"  style="overflow:visible;"/>
		</clipPath>
		<rect x="4.9" y="57.2" class="st12" width="124.3" height="1"/>
	</g>
	<g>
		<defs>
			<path id="SVGID_25_" d="M116.2,62L69,34.6L21.7,7.4C21.3,7.1,20.8,7,20.4,7s-0.9,0.1-1.3,0.4c-0.8,0.5-1.3,1.3-1.3,2.1v54.6v54.6
				c0,0.9,0.5,1.8,1.3,2.1c0.4,0.3,0.9,0.4,1.3,0.4s0.9-0.1,1.3-0.4L69,93.5l47.3-27.4c0.8-0.5,1.3-1.3,1.3-2.1S117,62.3,116.2,62z"
				/>
		</defs>
		<clipPath id="SVGID_26_">
			<use xlink:href="#SVGID_25_"  style="overflow:visible;"/>
		</clipPath>
		<rect x="4.9" y="61.6" class="st13" width="124.3" height="1"/>
	</g>
	<g>
		<defs>
			<path id="SVGID_27_" d="M116.2,62L69,34.6L21.7,7.4C21.3,7.1,20.8,7,20.4,7s-0.9,0.1-1.3,0.4c-0.8,0.5-1.3,1.3-1.3,2.1v54.6v54.6
				c0,0.9,0.5,1.8,1.3,2.1c0.4,0.3,0.9,0.4,1.3,0.4s0.9-0.1,1.3-0.4L69,93.5l47.3-27.4c0.8-0.5,1.3-1.3,1.3-2.1S117,62.3,116.2,62z"
				/>
		</defs>
		<clipPath id="SVGID_28_">
			<use xlink:href="#SVGID_27_"  style="overflow:visible;"/>
		</clipPath>
		<rect x="4.9" y="66" class="st14" width="124.3" height="1"/>
	</g>
	<g>
		<defs>
			<path id="SVGID_29_" d="M116.2,62L69,34.6L21.7,7.4C21.3,7.1,20.8,7,20.4,7s-0.9,0.1-1.3,0.4c-0.8,0.5-1.3,1.3-1.3,2.1v54.6v54.6
				c0,0.9,0.5,1.8,1.3,2.1c0.4,0.3,0.9,0.4,1.3,0.4s0.9-0.1,1.3-0.4L69,93.5l47.3-27.4c0.8-0.5,1.3-1.3,1.3-2.1S117,62.3,116.2,62z"
				/>
		</defs>
		<clipPath id="SVGID_30_">
			<use xlink:href="#SVGID_29_"  style="overflow:visible;"/>
		</clipPath>
		<rect x="4.9" y="70.5" class="st15" width="124.3" height="1"/>
	</g>
	<g>
		<defs>
			<path id="SVGID_31_" d="M116.2,62L69,34.6L21.7,7.4C21.3,7.1,20.8,7,20.4,7s-0.9,0.1-1.3,0.4c-0.8,0.5-1.3,1.3-1.3,2.1v54.6v54.6
				c0,0.9,0.5,1.8,1.3,2.1c0.4,0.3,0.9,0.4,1.3,0.4s0.9-0.1,1.3-0.4L69,93.5l47.3-27.4c0.8-0.5,1.3-1.3,1.3-2.1S117,62.3,116.2,62z"
				/>
		</defs>
		<clipPath id="SVGID_32_">
			<use xlink:href="#SVGID_31_"  style="overflow:visible;"/>
		</clipPath>
		<rect x="4.9" y="74.9" class="st16" width="124.3" height="1"/>
	</g>
	<g>
		<defs>
			<path id="SVGID_33_" d="M116.2,62L69,34.6L21.7,7.4C21.3,7.1,20.8,7,20.4,7s-0.9,0.1-1.3,0.4c-0.8,0.5-1.3,1.3-1.3,2.1v54.6v54.6
				c0,0.9,0.5,1.8,1.3,2.1c0.4,0.3,0.9,0.4,1.3,0.4s0.9-0.1,1.3-0.4L69,93.5l47.3-27.4c0.8-0.5,1.3-1.3,1.3-2.1S117,62.3,116.2,62z"
				/>
		</defs>
		<clipPath id="SVGID_34_">
			<use xlink:href="#SVGID_33_"  style="overflow:visible;"/>
		</clipPath>
		<rect x="4.9" y="79.4" class="st17" width="124.3" height="1"/>
	</g>
	<g>
		<defs>
			<path id="SVGID_35_" d="M116.2,62L69,34.6L21.7,7.4C21.3,7.1,20.8,7,20.4,7s-0.9,0.1-1.3,0.4c-0.8,0.5-1.3,1.3-1.3,2.1v54.6v54.6
				c0,0.9,0.5,1.8,1.3,2.1c0.4,0.3,0.9,0.4,1.3,0.4s0.9-0.1,1.3-0.4L69,93.5l47.3-27.4c0.8-0.5,1.3-1.3,1.3-2.1S117,62.3,116.2,62z"
				/>
		</defs>
		<clipPath id="SVGID_36_">
			<use xlink:href="#SVGID_35_"  style="overflow:visible;"/>
		</clipPath>
		<rect x="4.9" y="83.8" class="st18" width="124.3" height="1"/>
	</g>
	<g>
		<defs>
			<path id="SVGID_37_" d="M116.2,62L69,34.6L21.7,7.4C21.3,7.1,20.8,7,20.4,7s-0.9,0.1-1.3,0.4c-0.8,0.5-1.3,1.3-1.3,2.1v54.6v54.6
				c0,0.9,0.5,1.8,1.3,2.1c0.4,0.3,0.9,0.4,1.3,0.4s0.9-0.1,1.3-0.4L69,93.5l47.3-27.4c0.8-0.5,1.3-1.3,1.3-2.1S117,62.3,116.2,62z"
				/>
		</defs>
		<clipPath id="SVGID_38_">
			<use xlink:href="#SVGID_37_"  style="overflow:visible;"/>
		</clipPath>
		<rect x="4.9" y="88.3" class="st19" width="124.3" height="1"/>
	</g>
	<g>
		<defs>
			<path id="SVGID_39_" d="M116.2,62L69,34.6L21.7,7.4C21.3,7.1,20.8,7,20.4,7s-0.9,0.1-1.3,0.4c-0.8,0.5-1.3,1.3-1.3,2.1v54.6v54.6
				c0,0.9,0.5,1.8,1.3,2.1c0.4,0.3,0.9,0.4,1.3,0.4s0.9-0.1,1.3-0.4L69,93.5l47.3-27.4c0.8-0.5,1.3-1.3,1.3-2.1S117,62.3,116.2,62z"
				/>
		</defs>
		<clipPath id="SVGID_40_">
			<use xlink:href="#SVGID_39_"  style="overflow:visible;"/>
		</clipPath>
		<rect x="4.9" y="92.7" class="st20" width="124.3" height="1"/>
	</g>
	<g>
		<defs>
			<path id="SVGID_41_" d="M116.2,62L69,34.6L21.7,7.4C21.3,7.1,20.8,7,20.4,7s-0.9,0.1-1.3,0.4c-0.8,0.5-1.3,1.3-1.3,2.1v54.6v54.6
				c0,0.9,0.5,1.8,1.3,2.1c0.4,0.3,0.9,0.4,1.3,0.4s0.9-0.1,1.3-0.4L69,93.5l47.3-27.4c0.8-0.5,1.3-1.3,1.3-2.1S117,62.3,116.2,62z"
				/>
		</defs>
		<clipPath id="SVGID_42_">
			<use xlink:href="#SVGID_41_"  style="overflow:visible;"/>
		</clipPath>
		<rect x="4.9" y="97.1" class="st21" width="124.3" height="1"/>
	</g>
	<g>
		<defs>
			<path id="SVGID_43_" d="M116.2,62L69,34.6L21.7,7.4C21.3,7.1,20.8,7,20.4,7s-0.9,0.1-1.3,0.4c-0.8,0.5-1.3,1.3-1.3,2.1v54.6v54.6
				c0,0.9,0.5,1.8,1.3,2.1c0.4,0.3,0.9,0.4,1.3,0.4s0.9-0.1,1.3-0.4L69,93.5l47.3-27.4c0.8-0.5,1.3-1.3,1.3-2.1S117,62.3,116.2,62z"
				/>
		</defs>
		<clipPath id="SVGID_44_">
			<use xlink:href="#SVGID_43_"  style="overflow:visible;"/>
		</clipPath>
		<rect x="4.9" y="101.5" class="st22" width="124.3" height="1"/>
	</g>
	<g>
		<defs>
			<path id="SVGID_45_" d="M116.2,62L69,34.6L21.7,7.4C21.3,7.1,20.8,7,20.4,7s-0.9,0.1-1.3,0.4c-0.8,0.5-1.3,1.3-1.3,2.1v54.6v54.6
				c0,0.9,0.5,1.8,1.3,2.1c0.4,0.3,0.9,0.4,1.3,0.4s0.9-0.1,1.3-0.4L69,93.5l47.3-27.4c0.8-0.5,1.3-1.3,1.3-2.1S117,62.3,116.2,62z"
				/>
		</defs>
		<clipPath id="SVGID_46_">
			<use xlink:href="#SVGID_45_"  style="overflow:visible;"/>
		</clipPath>
		<rect x="4.9" y="106.1" class="st23" width="124.3" height="1"/>
	</g>
	<g>
		<defs>
			<path id="SVGID_47_" d="M116.2,62L69,34.6L21.7,7.4C21.3,7.1,20.8,7,20.4,7s-0.9,0.1-1.3,0.4c-0.8,0.5-1.3,1.3-1.3,2.1v54.6v54.6
				c0,0.9,0.5,1.8,1.3,2.1c0.4,0.3,0.9,0.4,1.3,0.4s0.9-0.1,1.3-0.4L69,93.5l47.3-27.4c0.8-0.5,1.3-1.3,1.3-2.1S117,62.3,116.2,62z"
				/>
		</defs>
		<clipPath id="SVGID_48_">
			<use xlink:href="#SVGID_47_"  style="overflow:visible;"/>
		</clipPath>
		<rect x="4.9" y="110.5" class="st24" width="124.3" height="1"/>
	</g>
	<g>
		<defs>
			<path id="SVGID_49_" d="M116.2,62L69,34.6L21.7,7.4C21.3,7.1,20.8,7,20.4,7s-0.9,0.1-1.3,0.4c-0.8,0.5-1.3,1.3-1.3,2.1v54.6v54.6
				c0,0.9,0.5,1.8,1.3,2.1c0.4,0.3,0.9,0.4,1.3,0.4s0.9-0.1,1.3-0.4L69,93.5l47.3-27.4c0.8-0.5,1.3-1.3,1.3-2.1S117,62.3,116.2,62z"
				/>
		</defs>
		<clipPath id="SVGID_50_">
			<use xlink:href="#SVGID_49_"  style="overflow:visible;"/>
		</clipPath>
		<rect x="4.9" y="114.9" class="st25" width="124.3" height="1"/>
	</g>
	<g>
		<defs>
			<path id="SVGID_51_" d="M116.2,62L69,34.6L21.7,7.4C21.3,7.1,20.8,7,20.4,7s-0.9,0.1-1.3,0.4c-0.8,0.5-1.3,1.3-1.3,2.1v54.6v54.6
				c0,0.9,0.5,1.8,1.3,2.1c0.4,0.3,0.9,0.4,1.3,0.4s0.9-0.1,1.3-0.4L69,93.5l47.3-27.4c0.8-0.5,1.3-1.3,1.3-2.1S117,62.3,116.2,62z"
				/>
		</defs>
		<clipPath id="SVGID_52_">
			<use xlink:href="#SVGID_51_"  style="overflow:visible;"/>
		</clipPath>
		<rect x="4.9" y="119.3" class="st26" width="124.3" height="1"/>
	</g>
</g>
<path class="st0" d="M20.4,9.5l47.3,27.4L115,64.2L67.7,91.5l-47.3,27.4V64.1L20.4,9.5 M20.4,7c-0.4,0-0.9,0.1-1.3,0.4
	c-0.8,0.5-1.3,1.3-1.3,2.1v54.6v54.6c0,0.9,0.5,1.8,1.3,2.1c0.4,0.3,0.9,0.4,1.3,0.4s0.9-0.1,1.3-0.4L69,93.5l47.3-27.4
	c0.8-0.5,1.3-1.3,1.3-2.1s-0.5-1.8-1.3-2.1L69,34.6L21.7,7.4C21.3,7.1,20.9,7,20.4,7L20.4,7z"/>
<g>
	<path class="st27" d="M20.4,119.9c-0.3,0-0.4,0-0.6-0.1c-0.4-0.3-0.6-0.6-0.6-1.1V9.5c0-0.5,0.3-0.9,0.6-1.1
		c0.3-0.1,0.4-0.1,0.6-0.1s0.4,0,0.6,0.1l37.6,21.7c0.4,0.3,0.6,0.6,0.6,1.1v12.2c0,0.4-0.3,0.9-0.6,1c-0.3,0.1-0.5,0.3-0.6,0.3
		c-0.1,0-0.4,0-0.5-0.1L33.8,33.8v17.3l24.5,4.8c0.6,0.1,1,0.6,1,1.3v10.6c0,0.4-0.1,0.6-0.4,0.9C58.6,68.9,58.4,69,58,69l-23.8-1.8
		v44.1c0,0.5-0.3,0.9-0.6,1.1l-12.5,7.2C20.9,119.9,20.7,119.9,20.4,119.9z"/>
	<g>
		<path class="st0" d="M20.4,9.5L58,31.2v12.2L32.5,32v20.3l25.5,5v10.6L32.9,66v45.4l-12.5,7.2V64.1L20.4,9.5 M20.4,7
			c-0.4,0-0.9,0.1-1.3,0.4c-0.8,0.5-1.3,1.3-1.3,2.1v54.6v54.6c0,0.9,0.5,1.8,1.3,2.1c0.4,0.3,0.9,0.4,1.3,0.4s0.9-0.1,1.3-0.4
			l12.5-7.2c0.8-0.5,1.3-1.3,1.3-2.1V68.8l22.4,1.6H58c0.6,0,1.3-0.3,1.8-0.6c0.5-0.5,0.8-1.1,0.8-1.9V57.3c0-1.3-0.9-2.3-2-2.5
			l-23.3-4.7V35.9L57,45.7c0.4,0.1,0.6,0.3,1,0.3c0.5,0,1-0.1,1.4-0.4c0.8-0.5,1.1-1.3,1.1-2.1V31.2c0-0.9-0.5-1.8-1.3-2.1L21.7,7.4
			C21.3,7.1,20.9,7,20.4,7L20.4,7z"/>
	</g>
</g>
<g>
	<g>
		<path class="st27" d="M65.8,93.8c-0.3,0-0.4,0-0.6-0.1c-0.4-0.3-0.6-0.6-0.6-1.1V35.7c0-0.5,0.3-0.9,0.6-1.1
			c0.3-0.1,0.4-0.1,0.6-0.1c0.3,0,0.4,0,0.6,0.1L115.6,63c0.4,0.3,0.6,0.6,0.6,1.1s-0.3,0.9-0.6,1.1L66.4,93.6
			C66.2,93.7,65.9,93.8,65.8,93.8z M77,76.7L98,63.6L77.2,52.4L77,76.7z"/>
	</g>
	<g>
		<path class="st0" d="M65.8,35.7l1.9,1.1L115,64.2L67.7,91.5l-1.9,1.1V35.7 M75.8,79l24.8-15.5L76,50.4L75.8,79 M65.8,33.2
			c-0.4,0-0.9,0.1-1.3,0.4c-0.8,0.5-1.3,1.3-1.3,2.1v56.8c0,0.9,0.5,1.8,1.3,2.1c0.4,0.3,0.9,0.4,1.3,0.4c0.4,0,0.9-0.1,1.3-0.4
			l1.9-1.1l47.3-27.4c0.8-0.5,1.3-1.3,1.3-2.1c0-0.9-0.5-1.8-1.3-2.1L69,34.6l-1.9-1.1C66.7,33.3,66.2,33.2,65.8,33.2L65.8,33.2z
			 M78.3,74.4l0.3-19.9l17,9.2L78.3,74.4L78.3,74.4z"/>
	</g>
</g>
</svg>
