<?xml version="1.0" standalone="no"?>
<!DOCTYPE svg PUBLIC "-//W3C//DTD SVG 20010904//EN"
 "http://www.w3.org/TR/2001/REC-SVG-20010904/DTD/svg10.dtd">
<svg version="1.0" xmlns="http://www.w3.org/2000/svg"
 width="700.000000pt" height="700.000000pt" viewBox="0 0 700.000000 700.000000"
 preserveAspectRatio="xMidYMid meet">
<metadata>
Created by potrace 1.11, written by Peter Selinger 2001-2013
</metadata>
<g transform="translate(0.000000,700.000000) scale(0.100000,-0.100000)"
fill="#000000" stroke="none">
<path d="M3280 6309 c-672 -54 -1296 -342 -1771 -818 -1018 -1022 -1106 -2629
-205 -3755 104 -130 304 -331 430 -431 597 -475 1324 -686 2086 -604 113 12
358 60 453 89 l67 21 0 1974 0 1975 -685 0 -685 0 2 248 3 247 1363 -3 c749
-2 1362 -1 1362 3 0 4 -38 51 -85 105 -360 414 -873 730 -1404 866 -308 79
-625 107 -931 83z m-1120 -1854 l0 -515 680 0 680 0 0 -1215 0 -1215 -96 0
c-245 0 -539 74 -800 201 -527 256 -914 735 -1058 1308 -72 285 -76 634 -11
925 60 266 184 531 356 761 71 95 225 265 240 265 5 0 9 -212 9 -515z"/>
<path d="M4930 2920 c0 -1037 4 -1840 9 -1840 13 0 196 124 290 198 207 162
371 329 534 547 295 396 482 870 538 1370 16 143 17 470 0 610 -17 151 -55
344 -96 484 -34 116 -122 346 -164 429 l-21 42 -545 0 -545 0 0 -1840z m348
1618 c146 -257 237 -526 272 -808 13 -109 13 -371 -1 -480 -45 -368 -188 -721
-411 -1012 -60 -79 -63 -82 -66 -54 -2 18 4 39 17 55 60 76 169 247 215 340
286 571 290 1233 12 1796 -36 72 -79 154 -96 183 l-32 52 24 0 c20 0 32 -14
66 -72z m219 -13 c102 -191 191 -469 230 -716 24 -159 24 -471 -1 -634 -49
-326 -169 -644 -340 -905 -72 -109 -203 -275 -270 -340 l-46 -44 0 28 c0 21
17 46 66 99 151 160 298 388 394 611 254 592 237 1265 -48 1836 -37 74 -69
138 -71 143 -2 5 7 7 20 5 17 -2 34 -23 66 -83z m215 -22 c102 -216 181 -504
208 -761 18 -164 8 -493 -20 -651 -93 -528 -334 -983 -716 -1351 -97 -93 -109
-102 -112 -81 -3 19 20 48 111 140 128 128 167 173 244 276 225 304 375 666
440 1060 26 156 26 554 0 710 -38 231 -108 462 -201 659 -25 54 -46 101 -46
102 0 2 9 4 21 4 16 0 31 -22 71 -107z m201 0 c375 -894 225 -1922 -388 -2668
-91 -110 -296 -313 -393 -388 -59 -46 -62 -47 -62 -24 0 19 20 42 83 95 500
423 814 998 903 1652 25 184 23 493 -5 675 -37 244 -109 501 -195 688 l-35 77
24 0 c20 0 29 -14 68 -107z m-733 -178 c210 -424 254 -865 130 -1330 -43 -165
-157 -422 -224 -510 -15 -19 -15 -19 -16 10 0 18 28 85 68 165 106 210 165
412 191 652 37 338 -29 687 -191 1008 -40 79 -68 147 -68 165 l0 30 20 -25
c11 -14 51 -88 90 -165z"/>
</g>
</svg>
