<?xml version="1.0" standalone="no"?>
<!DOCTYPE svg PUBLIC "-//W3C//DTD SVG 20010904//EN"
 "http://www.w3.org/TR/2001/REC-SVG-20010904/DTD/svg10.dtd">
<svg version="1.0" xmlns="http://www.w3.org/2000/svg"
 width="700.000000pt" height="700.000000pt" viewBox="0 0 700.000000 700.000000"
 preserveAspectRatio="xMidYMid meet">
<metadata>
Created by potrace 1.11, written by Peter Selinger 2001-2013
</metadata>
<g transform="translate(0.000000,700.000000) scale(0.100000,-0.100000)"
fill="#000000" stroke="none">
<path d="M3173 6294 c-330 -40 -614 -124 -918 -274 -299 -147 -489 -284 -741
-535 -250 -249 -386 -439 -540 -750 -128 -260 -212 -532 -261 -845 -26 -164
-26 -616 0 -780 87 -555 303 -1035 647 -1435 450 -523 1045 -852 1740 -960
141 -22 515 -31 662 -16 159 17 324 46 461 83 l117 31 0 1973 0 1974 -680 0
-680 0 0 250 0 250 1356 0 1355 0 -22 33 c-12 17 -97 106 -188 197 -250 249
-439 385 -746 535 -310 152 -615 240 -954 274 -140 15 -470 12 -608 -5z m-333
-2354 l680 0 0 -1215 0 -1215 -79 0 c-261 0 -571 79 -836 212 -187 94 -331
197 -488 347 -391 375 -607 885 -607 1431 0 531 200 1020 572 1400 l73 75 3
-517 2 -518 680 0z"/>
<path d="M4930 2920 l0 -1841 23 12 c43 23 193 127 287 199 136 104 389 362
496 505 298 398 476 825 550 1317 21 145 30 505 15 654 -32 315 -117 629 -244
907 l-40 87 -543 0 -544 0 0 -1840z m318 1662 c38 -53 131 -237 168 -332 90
-231 133 -441 141 -686 9 -264 -21 -479 -103 -724 -74 -222 -168 -402 -313
-594 -60 -80 -66 -86 -69 -61 -3 18 8 41 36 78 518 678 555 1608 94 2325 -13
20 -13 22 6 22 11 0 30 -13 40 -28z m234 -34 c134 -260 208 -493 249 -788 18
-128 15 -432 -6 -575 -67 -464 -269 -887 -584 -1225 -63 -67 -70 -72 -71 -50
0 18 21 50 71 105 370 411 569 927 569 1473 0 343 -73 659 -223 962 -39 80
-73 148 -75 153 -2 4 6 7 17 7 15 0 29 -16 53 -62z m234 -58 c89 -197 151
-405 191 -645 25 -153 25 -542 0 -700 -87 -556 -349 -1057 -743 -1423 -74 -69
-90 -79 -92 -63 -2 15 27 51 105 128 366 365 593 798 684 1308 27 150 37 491
20 646 -32 283 -110 556 -222 781 -22 43 -39 80 -39 83 0 4 10 5 22 3 18 -2
33 -26 74 -118z m193 18 c382 -906 225 -1946 -407 -2698 -91 -109 -242 -257
-354 -348 -71 -58 -78 -61 -78 -40 0 18 27 47 112 119 177 150 371 375 505
586 85 136 207 394 257 543 49 150 86 307 113 480 23 154 23 527 0 683 -36
236 -101 471 -183 663 -24 57 -44 106 -44 109 0 3 8 5 18 5 13 0 29 -27 61
-102z m-775 -95 c107 -189 188 -424 222 -639 25 -165 23 -424 -5 -588 -40
-231 -111 -430 -219 -620 -50 -85 -57 -95 -60 -71 -3 19 16 65 56 144 110 212
168 393 197 617 49 376 -30 795 -211 1118 -24 43 -44 91 -44 107 0 16 2 29 4
29 3 0 30 -44 60 -97z"/>
</g>
</svg>
